<svg xmlns="http://www.w3.org/2000/svg" viewBox="0 0 512 512" role="img" aria-labelledby="title desc">
<title id="title">Pascoe Lab bacterium logo</title><desc id="desc">A simplified bacterium with flagella inside a circular burgundy and green emblem.</desc>
<circle cx="256" cy="256" r="232" fill="#fffaf1" stroke="#26343a" stroke-width="18"/>
<circle cx="256" cy="256" r="204" fill="#723f50"/>
<circle cx="256" cy="256" r="174" fill="#f3dfdc" stroke="#26343a" stroke-width="10"/>
<g fill="none" stroke="#26343a" stroke-width="12" stroke-linecap="round">
<path d="M156 166 C108 120 82 113 53 124"/><path d="M139 205 C75 183 49 192 27 211"/><path d="M138 256 C75 256 48 274 30 300"/><path d="M151 311 C96 338 74 366 75 398"/><path d="M185 350 C151 401 153 431 175 458"/>
<path d="M355 163 C398 111 431 103 463 117"/><path d="M373 204 C431 175 458 183 484 204"/><path d="M376 260 C439 257 469 276 486 304"/><path d="M360 314 C413 341 439 370 438 405"/><path d="M326 354 C361 404 359 435 336 461"/>
</g>
<g transform="rotate(-28 256 256)">
<rect x="161" y="116" width="190" height="280" rx="95" fill="#586f68" stroke="#26343a" stroke-width="14"/>
<rect x="183" y="139" width="146" height="236" rx="73" fill="#a9c2cc" opacity=".55"/>
<path d="M205 178 C273 134 318 185 287 231 C259 273 199 266 202 318 C205 352 252 367 293 339" fill="none" stroke="#fffaf1" stroke-width="12" stroke-linecap="round"/>
<path d="M210 320 C262 350 311 320 304 277 C298 241 256 237 228 215" fill="none" stroke="#d8b35c" stroke-width="9" stroke-linecap="round"/>
<g stroke="#26343a" stroke-width="8" stroke-linecap="round"><path d="M169 164 l-32 -18"/><path d="M158 207 l-36 -7"/><path d="M157 253 l-38 5"/><path d="M164 303 l-35 16"/><path d="M188 356 l-25 27"/><path d="M344 164 l31 -19"/><path d="M354 208 l36 -7"/><path d="M355 255 l38 7"/><path d="M347 306 l35 18"/><path d="M324 356 l24 28"/></g>
</g></svg>