<svg xmlns="http://www.w3.org/2000/svg" viewBox="0 0 700 460">
<rect width="700" height="460" fill="#c7d9df"/>
<rect x="28" y="28" width="644" height="404" fill="#f7eddc" stroke="#263238" stroke-width="3"/>
<path d="M70 320c140-95 235-95 330 0s175 95 230 0v75H70z" fill="#608c86"/>
<circle cx="565" cy="115" r="48" fill="#d3a647"/>
<g fill="#6f3c48">
<path d="M130 185c55-43 95-37 124 8-57-18-91-9-124 27z"/>
<path d="M235 145c55-43 95-37 124 8-57-18-91-9-124 27z"/>
<path d="M385 190c55-43 95-37 124 8-57-18-91-9-124 27z"/>
</g>
<g fill="none" stroke="#263238" stroke-width="3">
<path d="M185 230c75 35 121 78 151 129"/>
<path d="M320 214c31 57 45 102 42 145"/>
<path d="M445 235c-31 45-49 85-53 124"/>
</g>
<g fill="#d8a09a" stroke="#263238" stroke-width="2">
<circle cx="336" cy="360" r="15"/><circle cx="362" cy="360" r="15"/><circle cx="392" cy="360" r="15"/>
</g>
</svg>