<svg xmlns="http://www.w3.org/2000/svg" viewBox="0 0 680 430">
<rect width="680" height="430" fill="#d3a647"/>
<rect x="35" y="30" width="610" height="370" fill="#f7eddc" stroke="#263238" stroke-width="3"/>
<g fill="#6f3c48"><rect x="82" y="80" width="230" height="20"/><rect x="82" y="118" width="170" height="12"/>
<rect x="82" y="240" width="230" height="20"/><rect x="82" y="278" width="190" height="12"/></g>
<g stroke="#263238" stroke-width="3" fill="none">
<path d="M370 100h190v100H370z"/><path d="M370 245h190v100H370z"/>
<path d="M388 175l45-45 34 30 72-42"/><path d="M390 320c25-50 50-15 75-55 25 35 50 8 78 38"/>
</g>
<g fill="#608c86"><circle cx="433" cy="130" r="9"/><circle cx="467" cy="160" r="9"/><circle cx="539" cy="118" r="9"/></g>
</svg>